<?xml version="1.0" standalone="no"?>
<!DOCTYPE svg PUBLIC "-//W3C//DTD SVG 20010904//EN"
 "http://www.w3.org/TR/2001/REC-SVG-20010904/DTD/svg10.dtd">
<svg version="1.0" xmlns="http://www.w3.org/2000/svg"
 width="64.000000pt" height="64.000000pt" viewBox="0 0 64.000000 64.000000"
 preserveAspectRatio="xMidYMid meet">

<g transform="translate(0.000000,64.000000) scale(0.100000,-0.100000)"
fill="#000000" stroke="none">
<path d="M383 378 l-133 -133 -58 58 c-32 31 -65 57 -73 57 -23 0 -61 -44 -54
-62 8 -21 172 -168 187 -168 13 0 328 310 328 323 0 10 -46 57 -57 57 -4 0
-68 -60 -140 -132z m158 102 c10 -6 19 -16 19 -23 0 -18 -292 -307 -310 -307
-9 0 -51 36 -95 80 l-79 80 21 21 21 22 60 -57 c32 -31 65 -56 73 -56 8 0 70
56 139 125 69 69 126 125 128 125 2 0 12 -5 23 -10z"/>
</g>
</svg>
